<svg xmlns="http://www.w3.org/2000/svg" width="816" height="176" class="svgbob"><style>.svgbob line, .svgbob circle, .svgbob polygon {
    stroke: white;
    stroke-width: 2;
    stroke-opacity: 1;
    fill-opacity: 1;
    stroke-linecap: round;
    stroke-linejoin: miter;
}
<!--separator--></style><defs><marker id="arrow" viewBox="-2 -2 8 8" refX="4" refY="2" markerWidth="7" markerHeight="7" orient="auto-start-reverse"><polygon points="0,0 0,4 4,2 0,0"></polygon></marker><marker id="diamond" viewBox="-2 -2 8 8" refX="4" refY="2" markerWidth="7" markerHeight="7" orient="auto-start-reverse"><polygon points="0,2 2,0 4,2 2,4 0,2"></polygon></marker><marker id="circle" viewBox="0 0 8 8" refX="4" refY="4" markerWidth="7" markerHeight="7" orient="auto-start-reverse"><circle cx="4" cy="4" r="2" class="filled"></circle></marker><marker id="open_circle" viewBox="0 0 8 8" refX="4" refY="4" markerWidth="7" markerHeight="7" orient="auto-start-reverse"><circle cx="4" cy="4" r="2" class="bg_filled"></circle></marker><marker id="big_open_circle" viewBox="0 0 8 8" refX="4" refY="4" markerWidth="7" markerHeight="7" orient="auto-start-reverse"><circle cx="4" cy="4" r="3" class="bg_filled"></circle></marker></defs><rect class="backdrop" x="0" y="0" width="816" height="176"></rect><line x1="728" y1="64" x2="752" y2="64" class="solid"></line><line x1="0" y1="64" x2="40" y2="144" class="solid"></line><text x="690" y="76" >|</text><line x1="68" y1="96" x2="92" y2="96" class="solid"></line><g><line x1="4" y1="48" x2="48" y2="48" class="solid"></line><line x1="4" y1="48" x2="4" y2="64" class="solid"></line><line x1="8" y1="48" x2="44" y2="120" class="solid"></line><line x1="44" y1="120" x2="44" y2="144" class="solid"></line><line x1="44" y1="128" x2="72" y2="128" class="solid"></line><line x1="40" y1="64" x2="48" y2="64" class="solid"></line><line x1="40" y1="64" x2="68" y2="120" class="solid"></line><line x1="48" y1="64" x2="64" y2="96" class="solid"></line><line x1="68" y1="120" x2="68" y2="144" class="solid"></line><line x1="44" y1="144" x2="68" y2="144" class="solid"></line></g><g><line x1="56" y1="48" x2="104" y2="48" class="solid"></line><line x1="56" y1="48" x2="64" y2="64" class="solid"></line></g><g><line x1="124" y1="48" x2="192" y2="48" class="solid"></line><line x1="124" y1="48" x2="124" y2="64" class="solid"></line><line x1="128" y1="48" x2="164" y2="120" class="solid"></line><line x1="192" y1="48" x2="228" y2="120" class="solid"></line><line x1="164" y1="120" x2="164" y2="144" class="solid"></line><line x1="164" y1="128" x2="232" y2="128" class="solid"></line><line x1="228" y1="120" x2="228" y2="144" class="solid"></line><line x1="164" y1="144" x2="228" y2="144" class="solid"></line><line x1="232" y1="128" x2="240" y2="144" class="solid"></line></g><g><line x1="204" y1="48" x2="272" y2="48" class="solid"></line><line x1="204" y1="48" x2="204" y2="64" class="solid"></line><line x1="208" y1="48" x2="244" y2="120" class="solid"></line><line x1="272" y1="48" x2="308" y2="120" class="solid"></line><line x1="244" y1="120" x2="244" y2="144" class="solid"></line><line x1="244" y1="128" x2="312" y2="128" class="solid"></line><line x1="308" y1="120" x2="308" y2="144" class="solid"></line><line x1="244" y1="144" x2="308" y2="144" class="solid"></line><line x1="312" y1="128" x2="320" y2="144" class="solid"></line></g><g><line x1="284" y1="48" x2="352" y2="48" class="solid"></line><line x1="284" y1="48" x2="284" y2="64" class="solid"></line><line x1="288" y1="48" x2="324" y2="120" class="solid"></line><line x1="324" y1="120" x2="324" y2="144" class="solid"></line><line x1="324" y1="128" x2="352" y2="128" class="solid"></line><line x1="372" y1="48" x2="440" y2="48" class="solid"></line><line x1="372" y1="48" x2="372" y2="64" class="solid"></line><line x1="376" y1="48" x2="396" y2="88" class="solid"></line><line x1="440" y1="48" x2="444" y2="56" class="solid"></line><line x1="444" y1="56" x2="444" y2="80" class="solid"></line><line x1="396" y1="88" x2="396" y2="112" class="solid"></line><line x1="396" y1="96" x2="440" y2="96" class="solid"></line><line x1="396" y1="112" x2="436" y2="112" class="solid"></line><line x1="436" y1="96" x2="436" y2="112" class="solid"></line><line x1="440" y1="96" x2="456" y2="128" class="solid"></line><line x1="320" y1="64" x2="344" y2="64" class="solid"></line><line x1="320" y1="64" x2="348" y2="120" class="solid"></line><line x1="328" y1="64" x2="368" y2="144" class="solid"></line><line x1="344" y1="64" x2="372" y2="120" class="solid"></line><line x1="348" y1="120" x2="348" y2="144" class="solid"></line><line x1="372" y1="120" x2="372" y2="144" class="solid"></line><line x1="372" y1="128" x2="456" y2="128" class="solid"></line><line x1="432" y1="112" x2="440" y2="128" class="solid"></line><line x1="324" y1="144" x2="348" y2="144" class="solid"></line><line x1="400" y1="128" x2="404" y2="136" class="solid"></line><line x1="404" y1="136" x2="404" y2="160" class="solid"></line><line x1="404" y1="144" x2="488" y2="144" class="solid"></line><line x1="360" y1="48" x2="396" y2="120" class="solid"></line><line x1="396" y1="120" x2="396" y2="144" class="solid"></line><line x1="372" y1="144" x2="396" y2="144" class="solid"></line><line x1="392" y1="144" x2="400" y2="160" class="solid"></line><line x1="408" y1="64" x2="448" y2="64" class="solid"></line><line x1="408" y1="64" x2="416" y2="80" class="solid"></line><line x1="416" y1="80" x2="444" y2="80" class="solid"></line><line x1="448" y1="64" x2="484" y2="136" class="solid"></line><line x1="484" y1="136" x2="484" y2="160" class="solid"></line><line x1="404" y1="160" x2="484" y2="160" class="solid"></line></g><g><line x1="452" y1="48" x2="480" y2="48" class="solid"></line><line x1="452" y1="48" x2="452" y2="64" class="solid"></line><line x1="456" y1="48" x2="492" y2="120" class="solid"></line><line x1="480" y1="48" x2="496" y2="80" class="solid"></line><line x1="492" y1="120" x2="492" y2="144" class="solid"></line><line x1="492" y1="128" x2="520" y2="128" class="solid"></line><line x1="520" y1="128" x2="528" y2="144" class="solid"></line><line x1="492" y1="48" x2="520" y2="48" class="solid"></line><line x1="492" y1="48" x2="492" y2="56" class="solid"></line><line x1="492" y1="56" x2="504" y2="80" class="solid"></line><line x1="496" y1="48" x2="512" y2="80" class="solid"></line><line x1="520" y1="48" x2="556" y2="120" class="solid"></line><line x1="556" y1="120" x2="556" y2="144" class="solid"></line><line x1="504" y1="96" x2="520" y2="96" class="solid"></line><line x1="504" y1="96" x2="516" y2="120" class="solid"></line><line x1="520" y1="96" x2="532" y2="120" class="solid"></line><line x1="516" y1="120" x2="516" y2="144" class="solid"></line><line x1="532" y1="120" x2="532" y2="144" class="solid"></line><line x1="532" y1="128" x2="560" y2="128" class="solid"></line><line x1="492" y1="144" x2="516" y2="144" class="solid"></line><line x1="532" y1="144" x2="556" y2="144" class="solid"></line><line x1="560" y1="128" x2="568" y2="144" class="solid"></line></g><g><line x1="532" y1="48" x2="600" y2="48" class="solid"></line><line x1="532" y1="48" x2="532" y2="64" class="solid"></line><line x1="536" y1="48" x2="572" y2="120" class="solid"></line><line x1="600" y1="48" x2="636" y2="120" class="solid"></line><line x1="572" y1="120" x2="572" y2="144" class="solid"></line><line x1="572" y1="128" x2="600" y2="128" class="solid"></line><line x1="636" y1="120" x2="636" y2="144" class="solid"></line><line x1="600" y1="128" x2="608" y2="144" class="solid"></line><line x1="584" y1="96" x2="600" y2="96" class="solid"></line><line x1="584" y1="96" x2="596" y2="120" class="solid"></line><line x1="600" y1="96" x2="612" y2="120" class="solid"></line><line x1="596" y1="120" x2="596" y2="144" class="solid"></line><line x1="612" y1="120" x2="612" y2="144" class="solid"></line><line x1="612" y1="128" x2="640" y2="128" class="solid"></line><line x1="572" y1="144" x2="596" y2="144" class="solid"></line><line x1="612" y1="144" x2="636" y2="144" class="solid"></line><line x1="640" y1="128" x2="648" y2="144" class="solid"></line></g><g><line x1="612" y1="48" x2="640" y2="48" class="solid"></line><line x1="612" y1="48" x2="612" y2="64" class="solid"></line><line x1="616" y1="48" x2="652" y2="120" class="solid"></line><line x1="640" y1="48" x2="656" y2="80" class="solid"></line><line x1="652" y1="120" x2="652" y2="144" class="solid"></line><line x1="652" y1="128" x2="680" y2="128" class="solid"></line><line x1="652" y1="48" x2="672" y2="48" class="solid"></line><line x1="652" y1="48" x2="652" y2="64" class="solid"></line><line x1="656" y1="48" x2="664" y2="64" class="solid"></line><line x1="664" y1="64" x2="656" y2="80" class="solid"></line><line x1="696" y1="64" x2="724" y2="120" class="solid"></line><line x1="724" y1="120" x2="724" y2="144" class="solid"></line><line x1="664" y1="96" x2="688" y2="96" class="solid"></line><line x1="664" y1="96" x2="676" y2="120" class="solid"></line><line x1="672" y1="96" x2="696" y2="144" class="solid"></line><line x1="688" y1="96" x2="700" y2="120" class="solid"></line><line x1="676" y1="120" x2="676" y2="144" class="solid"></line><line x1="700" y1="120" x2="700" y2="144" class="solid"></line><line x1="700" y1="128" x2="728" y2="128" class="solid"></line><line x1="652" y1="144" x2="676" y2="144" class="solid"></line><line x1="700" y1="144" x2="724" y2="144" class="solid"></line><line x1="728" y1="128" x2="736" y2="144" class="solid"></line></g><g><line x1="700" y1="48" x2="760" y2="48" class="solid"></line><line x1="700" y1="48" x2="700" y2="64" class="solid"></line><line x1="704" y1="48" x2="740" y2="120" class="solid"></line><line x1="760" y1="48" x2="768" y2="64" class="solid"></line><line x1="740" y1="120" x2="740" y2="144" class="solid"></line><line x1="740" y1="128" x2="808" y2="128" class="solid"></line><line x1="744" y1="80" x2="760" y2="80" class="solid"></line><line x1="768" y1="64" x2="760" y2="80" class="solid"></line><line x1="744" y1="80" x2="760" y2="112" class="solid"></line><line x1="760" y1="112" x2="772" y2="112" class="solid"></line><line x1="772" y1="96" x2="792" y2="96" class="solid"></line><line x1="772" y1="96" x2="772" y2="112" class="solid"></line><line x1="792" y1="96" x2="804" y2="120" class="solid"></line><line x1="804" y1="120" x2="804" y2="144" class="solid"></line><line x1="740" y1="144" x2="804" y2="144" class="solid"></line></g><g><line x1="80" y1="64" x2="88" y2="64" class="solid"></line><line x1="56" y1="64" x2="64" y2="80" class="solid"></line><line x1="64" y1="80" x2="88" y2="80" class="solid"></line><line x1="80" y1="64" x2="88" y2="80" class="solid"></line></g><g><line x1="112" y1="48" x2="148" y2="120" class="solid"></line><line x1="148" y1="120" x2="148" y2="144" class="solid"></line><line x1="96" y1="64" x2="124" y2="120" class="solid"></line><line x1="124" y1="120" x2="124" y2="144" class="solid"></line><line x1="124" y1="128" x2="152" y2="128" class="solid"></line><line x1="124" y1="144" x2="148" y2="144" class="solid"></line><line x1="152" y1="128" x2="160" y2="144" class="solid"></line></g><g><line x1="160" y1="64" x2="176" y2="64" class="solid"></line><line x1="160" y1="64" x2="184" y2="112" class="solid"></line><line x1="172" y1="64" x2="172" y2="72" class="solid"></line><line x1="172" y1="72" x2="192" y2="112" class="solid"></line><line x1="176" y1="64" x2="200" y2="112" class="solid"></line></g><g><line x1="240" y1="64" x2="256" y2="64" class="solid"></line><line x1="240" y1="64" x2="264" y2="112" class="solid"></line><line x1="252" y1="64" x2="252" y2="72" class="solid"></line><line x1="252" y1="72" x2="272" y2="112" class="solid"></line><line x1="256" y1="64" x2="280" y2="112" class="solid"></line></g><g><line x1="568" y1="64" x2="584" y2="64" class="solid"></line><line x1="568" y1="64" x2="576" y2="80" class="solid"></line><line x1="580" y1="64" x2="580" y2="80" class="solid"></line><line x1="584" y1="64" x2="592" y2="80" class="solid"></line></g><g><line x1="680" y1="48" x2="688" y2="64" class="solid"></line><line x1="688" y1="64" x2="680" y2="80" class="solid"></line></g><g><line x1="92" y1="80" x2="92" y2="88" class="solid"></line><line x1="92" y1="88" x2="120" y2="144" class="solid"></line></g></svg>